<svg xmlns="http://www.w3.org/2000/svg" xmlns:xlink="http://www.w3.org/1999/xlink" version="1.1" width="1000" height="1000" viewBox="0 0 1000 1000" xml:space="preserve">
<desc>Created with Fabric.js 3.5.0</desc>
<defs>
</defs>
<rect x="0" y="0" width="100%" height="100%" fill="#ffffff"/>
<g transform="matrix(0.6005 0 0 0.6005 534.7335 500.0277)" id="861554">
<g style="" vector-effect="non-scaling-stroke">
		<g transform="matrix(0.1333 0 0 -0.1333 -6.1899 -5.1924)">
<path style="stroke: none; stroke-width: 1; stroke-dasharray: none; stroke-linecap: butt; stroke-dashoffset: 0; stroke-linejoin: miter; stroke-miterlimit: 4; is-custom-font: none; font-file-url: none; fill: rgb(0,0,0); fill-rule: nonzero; opacity: 1;" transform=" translate(-3824.3292, -4953.0792)" d="M 4530 8404 c -30 -2 -129 -8 -220 -14 c -214 -14 -498 -41 -895 -85 c -1051 -115 -1573 -124 -2105 -34 c -113 19 -437 96 -484 115 c -17 7 -18 2 -12 -87 c 43 -594 308 -940 836 -1092 c 362 -105 921 -102 1769 7 c 116 15 174 19 177 12 c 2 -6 3 -967 2 -2136 l -3 -2125 l -130 -3 c -1005 -19 -1898 -485 -2575 -1342 l -71 -91 l 92 47 c 336 168 717 286 1096 338 c 659 91 1203 -5 1922 -339 l 163 -75 l 81 65 c 454 364 1042 648 1701 820 c 276 72 515 116 923 170 l 41 6 l -53 112 c -64 136 -117 286 -147 415 l -22 97 l -6 1630 c -7 1755 -6 1711 -61 2043 c -73 438 -219 787 -431 1029 c -241 275 -579 437 -1041 498 c -116 15 -440 26 -547 19 z m 83 -1095 c 160 -15 290 -48 407 -106 c 77 -38 110 -62 176 -128 c 68 -67 90 -98 127 -176 c 82 -170 107 -318 107 -645 l 0 -212 l -67 -40 c -155 -91 -301 -151 -463 -189 c -145 -34 -403 -43 -550 -19 c -179 30 -386 106 -550 200 l -75 44 l -3 610 l -2 610 l 42 6 c 79 11 352 37 473 45 c 180 12 244 12 378 0 z m 813 -3097 c -3 -2 -40 13 -83 33 c -187 89 -354 140 -541 165 c -108 14 -347 15 -437 1 c -181 -29 -380 -98 -545 -189 c -47 -26 -88 -48 -92 -50 c -5 -2 -8 386 -8 862 l 0 866 l 53 -30 c 156 -92 293 -146 455 -180 c 125 -27 397 -37 539 -21 c 186 22 408 95 575 191 l 83 47 l 3 -845 c 1 -465 0 -847 -2 -850 z m -622 77 c 173 -23 366 -88 542 -184 l 84 -46 l 0 -822 l 0 -823 l -156 -57 l -157 -57 l -86 78 c -347 316 -688 480 -1136 547 c -60 9 -125 18 -143 21 l -32 5 l 2 556 l 3 556 l 111 57 c 313 161 619 214 968 169 z" stroke-linecap="round"/>
</g>
		<g transform="matrix(0.1333 0 0 -0.1333 -251.5469 5.0704)">
<path style="stroke: none; stroke-width: 1; stroke-dasharray: none; stroke-linecap: butt; stroke-dashoffset: 0; stroke-linejoin: miter; stroke-miterlimit: 4; is-custom-font: none; font-file-url: none; fill: rgb(0,0,0); fill-rule: nonzero; opacity: 1;" transform=" translate(-1983.6916, -4876.4762)" d="M 3040 6821 c -299 -107 -549 -240 -742 -392 c -158 -127 -265 -260 -354 -444 c -77 -160 -114 -301 -139 -536 l -6 -56 l -142 -7 c -472 -22 -715 -194 -814 -576 c -30 -118 -43 -397 -24 -531 c 16 -107 62 -309 72 -309 c 4 0 10 18 14 41 c 10 60 80 193 120 228 c 46 40 101 68 172 86 c 44 12 120 15 331 15 l 273 0 l -4 -492 c -4 -548 -5 -556 -74 -696 c -25 -51 -62 -100 -125 -167 c -50 -53 -84 -93 -77 -91 c 8 3 87 26 177 51 c 442 125 771 294 983 505 c 164 162 251 319 306 545 c 15 63 17 193 23 1230 c 7 1108 8 1165 27 1266 c 24 124 51 208 96 302 c 18 37 28 67 23 66 c -6 0 -58 -17 -116 -38 z" stroke-linecap="round"/>
</g>
</g>
</g>
</svg>